<?xml version="1.0" standalone="no"?>
<!DOCTYPE svg PUBLIC "-//W3C//DTD SVG 20010904//EN"
 "http://www.w3.org/TR/2001/REC-SVG-20010904/DTD/svg10.dtd">
<svg version="1.0" xmlns="http://www.w3.org/2000/svg"
 width="983.000000pt" height="983.000000pt" viewBox="0 0 983.000000 983.000000"
 preserveAspectRatio="xMidYMid meet">
<metadata>
Created by potrace 1.14, written by Peter Selinger 2001-2017
</metadata>
<g transform="translate(0.000000,983.000000) scale(0.100000,-0.100000)"
fill="#000000" stroke="none">
<path d="M5284 9087 c-220 -222 -254 -263 -289 -342 -46 -103 -71 -275 -51
-342 3 -10 7 -29 10 -43 9 -50 48 -141 86 -198 81 -121 219 -217 357 -248 61
-13 201 -13 264 2 230 52 409 241 454 479 7 38 7 161 0 200 -10 55 -37 129
-69 190 -23 45 -83 112 -247 277 l-215 218 -55 0 -54 -1 -191 -192z"/>
<path d="M4018 7613 c-96 -98 -186 -198 -200 -223 -102 -181 -73 -398 72 -540
135 -133 337 -167 506 -84 144 70 241 220 248 381 3 77 -10 134 -47 213 -25
54 -59 94 -210 248 -100 100 -184 182 -187 182 -3 0 -85 -80 -182 -177z"/>
<path d="M2870 5690 l0 -148 43 -7 c102 -17 181 -78 225 -174 l26 -56 2 -1855
c1 -1020 4 -1866 8 -1880 3 -14 8 -38 12 -55 59 -302 307 -572 608 -662 160
-48 342 -50 496 -6 306 87 532 317 623 633 l22 75 3 1993 2 1993 42 -6 c115
-17 224 -121 245 -235 2 -14 5 -691 6 -1505 2 -1405 3 -1484 21 -1550 33 -124
82 -215 185 -338 30 -35 158 -126 212 -150 124 -56 228 -77 357 -71 352 14
648 284 697 637 3 26 6 706 7 1510 0 1391 1 1464 18 1510 38 100 117 167 221
189 l57 12 0 147 0 147 -2069 0 -2069 0 0 -148z"/>
</g>
</svg>
